<svg width="14" height="14" viewBox="0 0 14 14" fill="none" xmlns="http://www.w3.org/2000/svg">
<path d="M6.77564 10.1978C8.849 10.1978 10.5298 8.57553 10.5298 6.5744C10.5298 4.57327 8.849 2.95104 6.77564 2.95104C4.70228 2.95104 3.02148 4.57327 3.02148 6.5744C3.02148 8.57553 4.70228 10.1978 6.77564 10.1978Z" stroke="white" stroke-width="1.8" stroke-linecap="round" stroke-linejoin="round"/>
<path d="M10.8994 10.5545L10.8243 10.4821M10.8243 2.66675L10.8994 2.59428L10.8243 2.66675ZM2.65183 10.5545L2.72691 10.4821L2.65183 10.5545ZM6.77563 1.0446V1V1.0446ZM6.77563 12.1488V12.1042V12.1488ZM1.0462 6.5744H1H1.0462ZM12.5513 6.5744H12.505H12.5513ZM2.72691 2.66675L2.65183 2.59428L2.72691 2.66675Z" stroke="white" stroke-width="1.8" stroke-linecap="round" stroke-linejoin="round"/>
</svg>
