<svg width="53" height="21" viewBox="0 0 53 21" fill="none" xmlns="http://www.w3.org/2000/svg">
<path fill-rule="evenodd" clip-rule="evenodd" d="M12 2.5H8V6.5H4H0V10.5V14.5V18.5H4H8V14.5H12H16V10.5V6.5V2.5H12ZM4 14.5H8V10.5H12V6.5H8V10.5H4V14.5Z" fill="white"/>
<path d="M30.472 10.4C30.472 9.65333 30.408 9.04533 30.28 8.576C30.1573 8.10667 29.984 7.744 29.76 7.488C29.5413 7.232 29.2827 7.056 28.984 6.96C28.6853 6.864 28.3627 6.816 28.016 6.816H27.456V14.104H28.016C28.3787 14.104 28.7093 14.048 29.008 13.936C29.312 13.8187 29.5733 13.624 29.792 13.352C30.0107 13.0747 30.1787 12.696 30.296 12.216C30.4133 11.736 30.472 11.1307 30.472 10.4ZM33.192 10.4C33.192 11.3013 33.096 12.0747 32.904 12.72C32.712 13.36 32.4427 13.8933 32.096 14.32C31.7547 14.7467 31.3573 15.0827 30.904 15.328C30.4507 15.5733 29.9627 15.7467 29.44 15.848C28.9173 15.9493 28.3787 16 27.824 16H24.832V4.912H27.632C28.3413 4.912 29.0267 4.98667 29.688 5.136C30.3547 5.28 30.9493 5.54933 31.472 5.944C32 6.33333 32.4187 6.888 32.728 7.608C33.0373 8.32267 33.192 9.25333 33.192 10.4ZM39.9058 7.504V14.272H42.0658V16H34.9698V14.272H37.3778V9.232H35.0498V7.504H39.9058ZM38.3778 3.056C38.8151 3.056 39.1724 3.192 39.4498 3.464C39.7271 3.736 39.8658 4.07467 39.8658 4.48C39.8658 4.88533 39.7271 5.22667 39.4498 5.504C39.1724 5.776 38.8151 5.912 38.3778 5.912C37.9351 5.912 37.5724 5.776 37.2898 5.504C37.0124 5.22667 36.8738 4.88533 36.8738 4.48C36.8738 4.07467 37.0124 3.736 37.2898 3.464C37.5724 3.192 37.9351 3.056 38.3778 3.056ZM48.7395 4.128V13.328C48.7395 13.6693 48.8355 13.9147 49.0275 14.064C49.2248 14.208 49.4942 14.28 49.8355 14.28C50.0542 14.28 50.2648 14.256 50.4675 14.208C50.6702 14.1547 50.8595 14.0933 51.0355 14.024L51.6435 15.712C51.3555 15.8613 51.0088 15.992 50.6035 16.104C50.1982 16.216 49.7262 16.272 49.1875 16.272C48.1635 16.272 47.4115 15.9787 46.9315 15.392C46.4515 14.8 46.2115 14.008 46.2115 13.016V5.856H43.7075V4.128H48.7395Z" fill="white"/>
</svg>
